<svg width="182" height="117" viewBox="0 0 182 117" fill="none" xmlns="http://www.w3.org/2000/svg">
<path d="M48.9869 47.5312H16.1263C9.04236 47.5312 3.01641 50.9361 0.756387 57.8899C0.35877 59.1193 0 60.68 0 62.1562C0 73.125 21.9375 91.4062 32.9062 91.4062C39.5218 91.4062 45.0724 88.968 50.2094 83.8332C48.2488 86.3583 47.0536 89.1965 46.6172 92.3523C45.0221 103.607 47.0125 111.365 52.8397 113.257C58.4977 115.094 65.8125 117 69.4688 117C80.4375 117 81.6601 92.0507 75.4856 84.0046L48.9869 47.5312ZM55.6801 42.6684L65.8354 11.4166C68.0245 4.67771 73.125 0 80.4375 0C81.7309 0 83.3259 0.14168 84.729 0.596426C95.1608 3.9876 105.768 30.5 102.377 40.9317C100.334 47.225 96.301 51.7496 89.8295 55.0471C92.8345 53.964 95.9057 53.7035 99.041 54.2656C110.238 56.2263 117 60.5155 117 66.642C117 72.5926 116.552 80.1359 115.421 83.6139C112.032 94.0456 87.926 87.5009 82.1811 79.1395L55.6801 42.6684Z" fill="#59D6FF"/>
<path d="M152.935 42.3125H138.892C135.864 42.3125 133.289 43.7676 132.323 46.7393C132.153 47.2646 132 47.9316 132 48.5625C132 53.25 141.375 61.0625 146.062 61.0625C148.89 61.0625 151.262 60.0205 153.457 57.8262C152.619 58.9053 152.108 60.1182 151.922 61.4668C151.24 66.2764 152.091 69.5918 154.581 70.4004C156.999 71.1855 160.125 72 161.688 72C166.375 72 166.897 61.3379 164.259 57.8994L152.935 42.3125ZM155.795 40.2344L160.135 26.8789C161.07 23.999 163.25 22 166.375 22C166.928 22 167.609 22.0605 168.209 22.2549C172.667 23.7041 177.2 35.0342 175.751 39.4922C174.878 42.1816 173.154 44.1152 170.389 45.5244C171.673 45.0615 172.985 44.9502 174.325 45.1904C179.11 46.0283 182 47.8613 182 50.4795C182 53.0225 181.809 56.2461 181.325 57.7324C179.877 62.1904 169.575 59.3936 167.12 55.8203L155.795 40.2344Z" fill="#7AD8F6"/>
</svg>
